<svg width="1200" height="720" viewBox="0 0 1200 720" fill="none" xmlns="http://www.w3.org/2000/svg">
  <rect width="1200" height="720" rx="36" fill="#F8FAFC"/>
  <rect x="60" y="80" width="1080" height="560" rx="24" fill="#FFFFFF" stroke="#E2E8F0" stroke-width="2"/>
  <rect x="90" y="120" width="260" height="480" rx="18" fill="#F1F5F9"/>
  <rect x="380" y="120" width="730" height="140" rx="18" fill="#EFF6FF"/>
  <rect x="380" y="280" width="350" height="150" rx="18" fill="#E0F2FE"/>
  <rect x="760" y="280" width="350" height="150" rx="18" fill="#EEF2FF"/>
  <rect x="380" y="450" width="730" height="150" rx="18" fill="#F8FAFC" stroke="#E2E8F0"/>
  <rect x="120" y="160" width="200" height="20" rx="10" fill="#CBD5E1"/>
  <rect x="120" y="200" width="160" height="14" rx="7" fill="#E2E8F0"/>
  <rect x="120" y="240" width="200" height="14" rx="7" fill="#E2E8F0"/>
  <rect x="120" y="280" width="140" height="14" rx="7" fill="#E2E8F0"/>
  <rect x="420" y="160" width="220" height="16" rx="8" fill="#93C5FD"/>
  <rect x="420" y="190" width="160" height="12" rx="6" fill="#BFDBFE"/>
  <rect x="420" y="330" width="240" height="14" rx="7" fill="#60A5FA"/>
  <rect x="800" y="330" width="200" height="14" rx="7" fill="#818CF8"/>
  <rect x="420" y="500" width="480" height="18" rx="9" fill="#CBD5E1"/>
  <rect x="420" y="530" width="360" height="12" rx="6" fill="#E2E8F0"/>
</svg>
