<svg width="1200" height="720" viewBox="0 0 1200 720" fill="none" xmlns="http://www.w3.org/2000/svg">
  <rect width="1200" height="720" rx="36" fill="#F8FAFC"/>
  <rect x="60" y="80" width="1080" height="560" rx="24" fill="#FFFFFF" stroke="#E2E8F0" stroke-width="2"/>
  <rect x="90" y="120" width="350" height="520" rx="18" fill="#F1F5F9"/>
  <rect x="470" y="120" width="670" height="200" rx="18" fill="#E0F2FE"/>
  <rect x="470" y="340" width="320" height="300" rx="18" fill="#EEF2FF"/>
  <rect x="820" y="340" width="320" height="300" rx="18" fill="#EFF6FF"/>
  <rect x="130" y="170" width="240" height="16" rx="8" fill="#94A3B8"/>
  <rect x="130" y="200" width="180" height="12" rx="6" fill="#CBD5E1"/>
  <rect x="130" y="240" width="220" height="12" rx="6" fill="#CBD5E1"/>
  <rect x="510" y="170" width="260" height="16" rx="8" fill="#60A5FA"/>
  <rect x="510" y="200" width="180" height="12" rx="6" fill="#BFDBFE"/>
  <rect x="510" y="380" width="220" height="14" rx="7" fill="#818CF8"/>
  <rect x="860" y="380" width="220" height="14" rx="7" fill="#3B82F6"/>
</svg>
