<svg width="1200" height="720" viewBox="0 0 1200 720" fill="none" xmlns="http://www.w3.org/2000/svg">
  <rect width="1200" height="720" rx="36" fill="#F8FAFC"/>
  <rect x="60" y="80" width="1080" height="560" rx="24" fill="#FFFFFF" stroke="#E2E8F0" stroke-width="2"/>
  <rect x="90" y="120" width="1080" height="90" rx="18" fill="#EFF6FF"/>
  <rect x="90" y="230" width="520" height="180" rx="18" fill="#F1F5F9"/>
  <rect x="640" y="230" width="470" height="180" rx="18" fill="#E0E7FF"/>
  <rect x="90" y="430" width="1020" height="170" rx="18" fill="#FFFFFF" stroke="#E2E8F0"/>
  <rect x="130" y="150" width="220" height="16" rx="8" fill="#60A5FA"/>
  <rect x="130" y="180" width="140" height="12" rx="6" fill="#BFDBFE"/>
  <rect x="130" y="270" width="240" height="14" rx="7" fill="#CBD5E1"/>
  <rect x="130" y="300" width="200" height="12" rx="6" fill="#E2E8F0"/>
  <rect x="680" y="270" width="220" height="14" rx="7" fill="#818CF8"/>
  <rect x="680" y="300" width="180" height="12" rx="6" fill="#C7D2FE"/>
  <rect x="130" y="470" width="320" height="16" rx="8" fill="#CBD5E1"/>
  <rect x="130" y="500" width="240" height="12" rx="6" fill="#E2E8F0"/>
  <rect x="540" y="470" width="320" height="16" rx="8" fill="#CBD5E1"/>
  <rect x="540" y="500" width="240" height="12" rx="6" fill="#E2E8F0"/>
</svg>
